<mxfile host="65bd71144e">
    <diagram id="8qapJ0fVHWo8L-jdvbHv" name="Page-1">
        <mxGraphModel dx="2754" dy="1649" grid="1" gridSize="10" guides="1" tooltips="1" connect="1" arrows="1" fold="1" page="1" pageScale="1" pageWidth="850" pageHeight="1100" math="0" shadow="0">
            <root>
                <mxCell id="0"/>
                <mxCell id="1" parent="0"/>
                <mxCell id="2" value="OptionalFeature" style="swimlane;fontStyle=1;align=center;verticalAlign=top;childLayout=stackLayout;horizontal=1;startSize=26;horizontalStack=0;resizeParent=1;resizeParentMax=0;resizeLast=0;collapsible=1;marginBottom=0;" parent="1" vertex="1">
                    <mxGeometry x="900" y="100" width="190" height="140" as="geometry"/>
                </mxCell>
                <mxCell id="3" value="-name:str&#10;-price:float" style="text;strokeColor=none;fillColor=none;align=left;verticalAlign=top;spacingLeft=4;spacingRight=4;overflow=hidden;rotatable=0;points=[[0,0.5],[1,0.5]];portConstraint=eastwest;" parent="2" vertex="1">
                    <mxGeometry y="26" width="190" height="54" as="geometry"/>
                </mxCell>
                <mxCell id="4" value="" style="line;strokeWidth=1;fillColor=none;align=left;verticalAlign=middle;spacingTop=-1;spacingLeft=3;spacingRight=3;rotatable=0;labelPosition=right;points=[];portConstraint=eastwest;strokeColor=inherit;" parent="2" vertex="1">
                    <mxGeometry y="80" width="190" height="8" as="geometry"/>
                </mxCell>
                <mxCell id="5" value="+__init__(self, name,price)&#10;+__str__(self)" style="text;strokeColor=none;fillColor=none;align=left;verticalAlign=top;spacingLeft=4;spacingRight=4;overflow=hidden;rotatable=0;points=[[0,0.5],[1,0.5]];portConstraint=eastwest;" parent="2" vertex="1">
                    <mxGeometry y="88" width="190" height="52" as="geometry"/>
                </mxCell>
                <mxCell id="8" value="FeaturePackage" style="swimlane;fontStyle=1;align=center;verticalAlign=top;childLayout=stackLayout;horizontal=1;startSize=26;horizontalStack=0;resizeParent=1;resizeParentMax=0;resizeLast=0;collapsible=1;marginBottom=0;" parent="1" vertex="1">
                    <mxGeometry x="286" y="110" width="295" height="140" as="geometry"/>
                </mxCell>
                <mxCell id="9" value="-optional_feature:list[OptionalFeature]" style="text;strokeColor=none;fillColor=none;align=left;verticalAlign=top;spacingLeft=4;spacingRight=4;overflow=hidden;rotatable=0;points=[[0,0.5],[1,0.5]];portConstraint=eastwest;" parent="8" vertex="1">
                    <mxGeometry y="26" width="295" height="26" as="geometry"/>
                </mxCell>
                <mxCell id="10" value="" style="line;strokeWidth=1;fillColor=none;align=left;verticalAlign=middle;spacingTop=-1;spacingLeft=3;spacingRight=3;rotatable=0;labelPosition=right;points=[];portConstraint=eastwest;strokeColor=inherit;" parent="8" vertex="1">
                    <mxGeometry y="52" width="295" height="8" as="geometry"/>
                </mxCell>
                <mxCell id="11" value="+ __init__(self)&#10;+ add_optional_feature(self, feature:OptionalFeature)&#10;+ get_total_featureprice(self)&#10;+ __str__(self)&#10;+__repr__(self)" style="text;strokeColor=none;fillColor=none;align=left;verticalAlign=top;spacingLeft=4;spacingRight=4;overflow=hidden;rotatable=0;points=[[0,0.5],[1,0.5]];portConstraint=eastwest;" parent="8" vertex="1">
                    <mxGeometry y="60" width="295" height="80" as="geometry"/>
                </mxCell>
                <mxCell id="12" value="Vehicle" style="swimlane;fontStyle=1;align=center;verticalAlign=top;childLayout=stackLayout;horizontal=1;startSize=26;horizontalStack=0;resizeParent=1;resizeParentMax=0;resizeLast=0;collapsible=1;marginBottom=0;" parent="1" vertex="1">
                    <mxGeometry x="-263.33" y="95.83" width="310" height="170" as="geometry"/>
                </mxCell>
                <mxCell id="13" value="-model:str&#10;-base_price:float&#10;-color:str&#10;-model_year:int" style="text;strokeColor=none;fillColor=none;align=left;verticalAlign=top;spacingLeft=4;spacingRight=4;overflow=hidden;rotatable=0;points=[[0,0.5],[1,0.5]];portConstraint=eastwest;" parent="12" vertex="1">
                    <mxGeometry y="26" width="310" height="74" as="geometry"/>
                </mxCell>
                <mxCell id="14" value="" style="line;strokeWidth=1;fillColor=none;align=left;verticalAlign=middle;spacingTop=-1;spacingLeft=3;spacingRight=3;rotatable=0;labelPosition=right;points=[];portConstraint=eastwest;strokeColor=inherit;" parent="12" vertex="1">
                    <mxGeometry y="100" width="310" height="8" as="geometry"/>
                </mxCell>
                <mxCell id="15" value="+ __init__(self,model,base_price,color, model_year:)&#10;+ __str__(self)&#10;+__repr__(self)" style="text;strokeColor=none;fillColor=none;align=left;verticalAlign=top;spacingLeft=4;spacingRight=4;overflow=hidden;rotatable=0;points=[[0,0.5],[1,0.5]];portConstraint=eastwest;" parent="12" vertex="1">
                    <mxGeometry y="108" width="310" height="62" as="geometry"/>
                </mxCell>
                <mxCell id="16" value="EnhancedSafetyFeature" style="swimlane;fontStyle=1;align=center;verticalAlign=top;childLayout=stackLayout;horizontal=1;startSize=26;horizontalStack=0;resizeParent=1;resizeParentMax=0;resizeLast=0;collapsible=1;marginBottom=0;" parent="1" vertex="1">
                    <mxGeometry x="730" y="330" width="160" height="60" as="geometry"/>
                </mxCell>
                <mxCell id="18" value="" style="line;strokeWidth=1;fillColor=none;align=left;verticalAlign=middle;spacingTop=-1;spacingLeft=3;spacingRight=3;rotatable=0;labelPosition=right;points=[];portConstraint=eastwest;strokeColor=inherit;" parent="16" vertex="1">
                    <mxGeometry y="26" width="160" height="8" as="geometry"/>
                </mxCell>
                <mxCell id="19" value="+__init__(self)" style="text;strokeColor=none;fillColor=none;align=left;verticalAlign=top;spacingLeft=4;spacingRight=4;overflow=hidden;rotatable=0;points=[[0,0.5],[1,0.5]];portConstraint=eastwest;" parent="16" vertex="1">
                    <mxGeometry y="34" width="160" height="26" as="geometry"/>
                </mxCell>
                <mxCell id="20" value="Security" style="swimlane;fontStyle=1;align=center;verticalAlign=top;childLayout=stackLayout;horizontal=1;startSize=26;horizontalStack=0;resizeParent=1;resizeParentMax=0;resizeLast=0;collapsible=1;marginBottom=0;" parent="1" vertex="1">
                    <mxGeometry x="925" y="330" width="160" height="60" as="geometry"/>
                </mxCell>
                <mxCell id="22" value="" style="line;strokeWidth=1;fillColor=none;align=left;verticalAlign=middle;spacingTop=-1;spacingLeft=3;spacingRight=3;rotatable=0;labelPosition=right;points=[];portConstraint=eastwest;strokeColor=inherit;" parent="20" vertex="1">
                    <mxGeometry y="26" width="160" height="8" as="geometry"/>
                </mxCell>
                <mxCell id="23" value="+__init__(self)" style="text;strokeColor=none;fillColor=none;align=left;verticalAlign=top;spacingLeft=4;spacingRight=4;overflow=hidden;rotatable=0;points=[[0,0.5],[1,0.5]];portConstraint=eastwest;" parent="20" vertex="1">
                    <mxGeometry y="34" width="160" height="26" as="geometry"/>
                </mxCell>
                <mxCell id="24" value="Sunroof" style="swimlane;fontStyle=1;align=center;verticalAlign=top;childLayout=stackLayout;horizontal=1;startSize=26;horizontalStack=0;resizeParent=1;resizeParentMax=0;resizeLast=0;collapsible=1;marginBottom=0;" parent="1" vertex="1">
                    <mxGeometry x="1110" y="330" width="160" height="60" as="geometry"/>
                </mxCell>
                <mxCell id="26" value="" style="line;strokeWidth=1;fillColor=none;align=left;verticalAlign=middle;spacingTop=-1;spacingLeft=3;spacingRight=3;rotatable=0;labelPosition=right;points=[];portConstraint=eastwest;strokeColor=inherit;" parent="24" vertex="1">
                    <mxGeometry y="26" width="160" height="8" as="geometry"/>
                </mxCell>
                <mxCell id="27" value="+__init__(self)" style="text;strokeColor=none;fillColor=none;align=left;verticalAlign=top;spacingLeft=4;spacingRight=4;overflow=hidden;rotatable=0;points=[[0,0.5],[1,0.5]];portConstraint=eastwest;" parent="24" vertex="1">
                    <mxGeometry y="34" width="160" height="26" as="geometry"/>
                </mxCell>
                <mxCell id="28" value="EntertainmentSystem" style="swimlane;fontStyle=1;align=center;verticalAlign=top;childLayout=stackLayout;horizontal=1;startSize=26;horizontalStack=0;resizeParent=1;resizeParentMax=0;resizeLast=0;collapsible=1;marginBottom=0;" parent="1" vertex="1">
                    <mxGeometry x="1290" y="330" width="160" height="60" as="geometry"/>
                </mxCell>
                <mxCell id="30" value="" style="line;strokeWidth=1;fillColor=none;align=left;verticalAlign=middle;spacingTop=-1;spacingLeft=3;spacingRight=3;rotatable=0;labelPosition=right;points=[];portConstraint=eastwest;strokeColor=inherit;" parent="28" vertex="1">
                    <mxGeometry y="26" width="160" height="8" as="geometry"/>
                </mxCell>
                <mxCell id="31" value="+__init__(self)" style="text;strokeColor=none;fillColor=none;align=left;verticalAlign=top;spacingLeft=4;spacingRight=4;overflow=hidden;rotatable=0;points=[[0,0.5],[1,0.5]];portConstraint=eastwest;" parent="28" vertex="1">
                    <mxGeometry y="34" width="160" height="26" as="geometry"/>
                </mxCell>
                <mxCell id="33" value="Sedan" style="swimlane;fontStyle=1;align=center;verticalAlign=top;childLayout=stackLayout;horizontal=1;startSize=26;horizontalStack=0;resizeParent=1;resizeParentMax=0;resizeLast=0;collapsible=1;marginBottom=0;" parent="1" vertex="1">
                    <mxGeometry x="-800" y="350" width="300" height="130" as="geometry"/>
                </mxCell>
                <mxCell id="34" value="-num_seats:int" style="text;strokeColor=none;fillColor=none;align=left;verticalAlign=top;spacingLeft=4;spacingRight=4;overflow=hidden;rotatable=0;points=[[0,0.5],[1,0.5]];portConstraint=eastwest;" parent="33" vertex="1">
                    <mxGeometry y="26" width="300" height="26" as="geometry"/>
                </mxCell>
                <mxCell id="35" value="" style="line;strokeWidth=1;fillColor=none;align=left;verticalAlign=middle;spacingTop=-1;spacingLeft=3;spacingRight=3;rotatable=0;labelPosition=right;points=[];portConstraint=eastwest;strokeColor=inherit;" parent="33" vertex="1">
                    <mxGeometry y="52" width="300" height="8" as="geometry"/>
                </mxCell>
                <mxCell id="36" value="+__init__(self, model, color, model_year,num_seats)&#10;+ __str__(self)&#10;+__repr__(self)" style="text;strokeColor=none;fillColor=none;align=left;verticalAlign=top;spacingLeft=4;spacingRight=4;overflow=hidden;rotatable=0;points=[[0,0.5],[1,0.5]];portConstraint=eastwest;" parent="33" vertex="1">
                    <mxGeometry y="60" width="300" height="70" as="geometry"/>
                </mxCell>
                <mxCell id="37" value="Truck" style="swimlane;fontStyle=1;align=center;verticalAlign=top;childLayout=stackLayout;horizontal=1;startSize=26;horizontalStack=0;resizeParent=1;resizeParentMax=0;resizeLast=0;collapsible=1;marginBottom=0;" parent="1" vertex="1">
                    <mxGeometry x="-440" y="370" width="320" height="100" as="geometry"/>
                </mxCell>
                <mxCell id="38" value="-cargo_bed_size:str" style="text;strokeColor=none;fillColor=none;align=left;verticalAlign=top;spacingLeft=4;spacingRight=4;overflow=hidden;rotatable=0;points=[[0,0.5],[1,0.5]];portConstraint=eastwest;" parent="37" vertex="1">
                    <mxGeometry y="26" width="320" height="26" as="geometry"/>
                </mxCell>
                <mxCell id="39" value="" style="line;strokeWidth=1;fillColor=none;align=left;verticalAlign=middle;spacingTop=-1;spacingLeft=3;spacingRight=3;rotatable=0;labelPosition=right;points=[];portConstraint=eastwest;strokeColor=inherit;" parent="37" vertex="1">
                    <mxGeometry y="52" width="320" height="8" as="geometry"/>
                </mxCell>
                <mxCell id="40" value="+__init__(self, model,color, model_year,cargo_bed_size)&#10;+__str__(self)" style="text;strokeColor=none;fillColor=none;align=left;verticalAlign=top;spacingLeft=4;spacingRight=4;overflow=hidden;rotatable=0;points=[[0,0.5],[1,0.5]];portConstraint=eastwest;" parent="37" vertex="1">
                    <mxGeometry y="60" width="320" height="40" as="geometry"/>
                </mxCell>
                <mxCell id="41" value="SUV" style="swimlane;fontStyle=1;align=center;verticalAlign=top;childLayout=stackLayout;horizontal=1;startSize=26;horizontalStack=0;resizeParent=1;resizeParentMax=0;resizeLast=0;collapsible=1;marginBottom=0;" parent="1" vertex="1">
                    <mxGeometry x="-90" y="370" width="310" height="110" as="geometry">
                        <mxRectangle x="-90" y="370" width="70" height="30" as="alternateBounds"/>
                    </mxGeometry>
                </mxCell>
                <mxCell id="42" value="-roof_rack_type:str" style="text;strokeColor=none;fillColor=none;align=left;verticalAlign=top;spacingLeft=4;spacingRight=4;overflow=hidden;rotatable=0;points=[[0,0.5],[1,0.5]];portConstraint=eastwest;" parent="41" vertex="1">
                    <mxGeometry y="26" width="310" height="26" as="geometry"/>
                </mxCell>
                <mxCell id="43" value="" style="line;strokeWidth=1;fillColor=none;align=left;verticalAlign=middle;spacingTop=-1;spacingLeft=3;spacingRight=3;rotatable=0;labelPosition=right;points=[];portConstraint=eastwest;strokeColor=inherit;" parent="41" vertex="1">
                    <mxGeometry y="52" width="310" height="8" as="geometry"/>
                </mxCell>
                <mxCell id="44" value="+__init__(self, model, color, model_year, roof_rack_type)&#10;+__str__(self)" style="text;strokeColor=none;fillColor=none;align=left;verticalAlign=top;spacingLeft=4;spacingRight=4;overflow=hidden;rotatable=0;points=[[0,0.5],[1,0.5]];portConstraint=eastwest;" parent="41" vertex="1">
                    <mxGeometry y="60" width="310" height="50" as="geometry"/>
                </mxCell>
                <mxCell id="50" value="Order" style="swimlane;fontStyle=1;align=center;verticalAlign=top;childLayout=stackLayout;horizontal=1;startSize=26;horizontalStack=0;resizeParent=1;resizeParentMax=0;resizeLast=0;collapsible=1;marginBottom=0;" parent="1" vertex="1">
                    <mxGeometry x="-670" y="121" width="260" height="180" as="geometry"/>
                </mxCell>
                <mxCell id="51" value="- customer_name:str&#10;-order_id:str&#10;-vehicle:Vehicle&#10;-feature_package:Feature_Package" style="text;strokeColor=none;fillColor=none;align=left;verticalAlign=top;spacingLeft=4;spacingRight=4;overflow=hidden;rotatable=0;points=[[0,0.5],[1,0.5]];portConstraint=eastwest;" parent="50" vertex="1">
                    <mxGeometry y="26" width="260" height="74" as="geometry"/>
                </mxCell>
                <mxCell id="52" value="" style="line;strokeWidth=1;fillColor=none;align=left;verticalAlign=middle;spacingTop=-1;spacingLeft=3;spacingRight=3;rotatable=0;labelPosition=right;points=[];portConstraint=eastwest;strokeColor=inherit;" parent="50" vertex="1">
                    <mxGeometry y="100" width="260" height="8" as="geometry"/>
                </mxCell>
                <mxCell id="53" value="+__init__(self,customer_name,orderid&#10;,vehicle,feature_package)&#10;+ final_price(self)&#10;+convert_to_list(self)" style="text;strokeColor=none;fillColor=none;align=left;verticalAlign=top;spacingLeft=4;spacingRight=4;overflow=hidden;rotatable=0;points=[[0,0.5],[1,0.5]];portConstraint=eastwest;" parent="50" vertex="1">
                    <mxGeometry y="108" width="260" height="72" as="geometry"/>
                </mxCell>
                <mxCell id="54" value="*" style="endArrow=open;html=1;endSize=12;startArrow=diamondThin;startSize=14;startFill=0;edgeStyle=orthogonalEdgeStyle;align=left;verticalAlign=bottom;entryX=-0.013;entryY=0.032;entryDx=0;entryDy=0;entryPerimeter=0;exitX=1.005;exitY=0.842;exitDx=0;exitDy=0;exitPerimeter=0;" parent="1" target="15" edge="1" source="51">
                    <mxGeometry x="-1" y="3" relative="1" as="geometry">
                        <mxPoint x="-420" y="210" as="sourcePoint"/>
                        <mxPoint x="-210" y="300" as="targetPoint"/>
                    </mxGeometry>
                </mxCell>
                <mxCell id="56" value="1" style="endArrow=open;html=1;endSize=12;startArrow=diamondThin;startSize=14;startFill=0;edgeStyle=orthogonalEdgeStyle;align=left;verticalAlign=bottom;entryX=0.552;entryY=-0.029;entryDx=0;entryDy=0;entryPerimeter=0;" parent="1" target="8" edge="1">
                    <mxGeometry x="-1" y="3" relative="1" as="geometry">
                        <mxPoint x="-580" y="120" as="sourcePoint"/>
                        <mxPoint x="880" y="100" as="targetPoint"/>
                        <Array as="points">
                            <mxPoint x="-580" y="30"/>
                            <mxPoint x="449" y="30"/>
                        </Array>
                    </mxGeometry>
                </mxCell>
                <mxCell id="61" value="OrderRepo" style="swimlane;fontStyle=1;align=center;verticalAlign=top;childLayout=stackLayout;horizontal=1;startSize=26;horizontalStack=0;resizeParent=1;resizeParentMax=0;resizeLast=0;collapsible=1;marginBottom=0;" parent="1" vertex="1">
                    <mxGeometry x="-1130" y="355" width="210" height="130" as="geometry"/>
                </mxCell>
                <mxCell id="65" value="Use" style="endArrow=open;endSize=12;dashed=1;html=1;entryX=-0.008;entryY=0.125;entryDx=0;entryDy=0;entryPerimeter=0;" parent="61" target="53" edge="1">
                    <mxGeometry width="160" relative="1" as="geometry">
                        <mxPoint x="140" as="sourcePoint"/>
                        <mxPoint x="300" as="targetPoint"/>
                    </mxGeometry>
                </mxCell>
                <mxCell id="62" value="-file_name:str" style="text;strokeColor=none;fillColor=none;align=left;verticalAlign=top;spacingLeft=4;spacingRight=4;overflow=hidden;rotatable=0;points=[[0,0.5],[1,0.5]];portConstraint=eastwest;" parent="61" vertex="1">
                    <mxGeometry y="26" width="210" height="26" as="geometry"/>
                </mxCell>
                <mxCell id="63" value="" style="line;strokeWidth=1;fillColor=none;align=left;verticalAlign=middle;spacingTop=-1;spacingLeft=3;spacingRight=3;rotatable=0;labelPosition=right;points=[];portConstraint=eastwest;strokeColor=inherit;" parent="61" vertex="1">
                    <mxGeometry y="52" width="210" height="8" as="geometry"/>
                </mxCell>
                <mxCell id="64" value="+__init__(self,filename)&#10;+ save_order(self,order:list[Order)&#10;+read_order(self)&#10;+ create_vehicle_package(self,row)" style="text;strokeColor=none;fillColor=none;align=left;verticalAlign=top;spacingLeft=4;spacingRight=4;overflow=hidden;rotatable=0;points=[[0,0.5],[1,0.5]];portConstraint=eastwest;" parent="61" vertex="1">
                    <mxGeometry y="60" width="210" height="70" as="geometry"/>
                </mxCell>
                <mxCell id="66" value="Dealership" style="swimlane;fontStyle=1;align=center;verticalAlign=top;childLayout=stackLayout;horizontal=1;startSize=26;horizontalStack=0;resizeParent=1;resizeParentMax=0;resizeLast=0;collapsible=1;marginBottom=0;" parent="1" vertex="1">
                    <mxGeometry x="-1235" y="-4.170000000000002" width="340" height="310" as="geometry"/>
                </mxCell>
                <mxCell id="67" value="-name:str&#10;-address:str&#10;-inventory:list[Vehicle]&#10;-orders:list[Order]" style="text;strokeColor=none;fillColor=none;align=left;verticalAlign=top;spacingLeft=4;spacingRight=4;overflow=hidden;rotatable=0;points=[[0,0.5],[1,0.5]];portConstraint=eastwest;" parent="66" vertex="1">
                    <mxGeometry y="26" width="340" height="64" as="geometry"/>
                </mxCell>
                <mxCell id="68" value="" style="line;strokeWidth=1;fillColor=none;align=left;verticalAlign=middle;spacingTop=-1;spacingLeft=3;spacingRight=3;rotatable=0;labelPosition=right;points=[];portConstraint=eastwest;strokeColor=inherit;" parent="66" vertex="1">
                    <mxGeometry y="90" width="340" height="8" as="geometry"/>
                </mxCell>
                <mxCell id="69" value="+ __init__(self,name.address)&#10;+add_vehicle(self,vehicle:Vehicle)&#10;+ add_vehicle_to_order(self, order:Order)&#10;+ remove_vehicle_from_inventory(self,vehicle:Vehicle)&#10;+ remove_vehicel_from_order(self,name:str,orderid:str)&#10;+ view_order(self)&#10;+ view_vehicle(self)&#10;+search_feature(self,feature:OptionalFeature)&#10;+highest_lowest_price(self)&#10;+search_by_price(self,price:float)&#10;+ get_vehicle_vehiclefromVehicledb(self)&#10;+get_order_fromorderdb(self)&#10;+ save_order_to_vehicledb(self)&#10;+save_order_to_orderdb(self)" style="text;strokeColor=none;fillColor=none;align=left;verticalAlign=top;spacingLeft=4;spacingRight=4;overflow=hidden;rotatable=0;points=[[0,0.5],[1,0.5]];portConstraint=eastwest;" parent="66" vertex="1">
                    <mxGeometry y="98" width="340" height="212" as="geometry"/>
                </mxCell>
                <mxCell id="70" value="DealershipApp" style="swimlane;fontStyle=1;align=center;verticalAlign=top;childLayout=stackLayout;horizontal=1;startSize=26;horizontalStack=0;resizeParent=1;resizeParentMax=0;resizeLast=0;collapsible=1;marginBottom=0;" parent="1" vertex="1">
                    <mxGeometry x="-1610" y="45" width="160" height="120" as="geometry"/>
                </mxCell>
                <mxCell id="71" value="-dealership:Dealership" style="text;strokeColor=none;fillColor=none;align=left;verticalAlign=top;spacingLeft=4;spacingRight=4;overflow=hidden;rotatable=0;points=[[0,0.5],[1,0.5]];portConstraint=eastwest;" parent="70" vertex="1">
                    <mxGeometry y="26" width="160" height="26" as="geometry"/>
                </mxCell>
                <mxCell id="72" value="" style="line;strokeWidth=1;fillColor=none;align=left;verticalAlign=middle;spacingTop=-1;spacingLeft=3;spacingRight=3;rotatable=0;labelPosition=right;points=[];portConstraint=eastwest;strokeColor=inherit;" parent="70" vertex="1">
                    <mxGeometry y="52" width="160" height="8" as="geometry"/>
                </mxCell>
                <mxCell id="73" value="+ __init__(self)&#10;+ show_menu(self)&#10;+process_command(self)" style="text;strokeColor=none;fillColor=none;align=left;verticalAlign=top;spacingLeft=4;spacingRight=4;overflow=hidden;rotatable=0;points=[[0,0.5],[1,0.5]];portConstraint=eastwest;" parent="70" vertex="1">
                    <mxGeometry y="60" width="160" height="60" as="geometry"/>
                </mxCell>
                <mxCell id="74" value="1" style="endArrow=open;html=1;endSize=12;startArrow=diamondThin;startSize=14;startFill=1;edgeStyle=orthogonalEdgeStyle;align=left;verticalAlign=bottom;exitX=1.019;exitY=0.217;exitDx=0;exitDy=0;exitPerimeter=0;entryX=0.015;entryY=0.106;entryDx=0;entryDy=0;entryPerimeter=0;" parent="1" source="73" target="69" edge="1">
                    <mxGeometry x="-1" y="3" relative="1" as="geometry">
                        <mxPoint x="-1470" y="310" as="sourcePoint"/>
                        <mxPoint x="-1310" y="310" as="targetPoint"/>
                    </mxGeometry>
                </mxCell>
                <mxCell id="77" value="*" style="text;html=1;align=center;verticalAlign=middle;resizable=0;points=[];autosize=1;strokeColor=none;fillColor=none;" parent="1" vertex="1">
                    <mxGeometry x="415" y="65" width="30" height="30" as="geometry"/>
                </mxCell>
                <mxCell id="78" value="1" style="text;html=1;align=center;verticalAlign=middle;resizable=0;points=[];autosize=1;strokeColor=none;fillColor=none;" parent="1" vertex="1">
                    <mxGeometry x="-1265" y="110" width="30" height="30" as="geometry"/>
                </mxCell>
                <mxCell id="79" value="VehicleRepo" style="swimlane;fontStyle=1;align=center;verticalAlign=top;childLayout=stackLayout;horizontal=1;startSize=26;horizontalStack=0;resizeParent=1;resizeParentMax=0;resizeLast=0;collapsible=1;marginBottom=0;" parent="1" vertex="1">
                    <mxGeometry x="530" y="490" width="220" height="120" as="geometry"/>
                </mxCell>
                <mxCell id="80" value="-filename:str" style="text;strokeColor=none;fillColor=none;align=left;verticalAlign=top;spacingLeft=4;spacingRight=4;overflow=hidden;rotatable=0;points=[[0,0.5],[1,0.5]];portConstraint=eastwest;" parent="79" vertex="1">
                    <mxGeometry y="26" width="220" height="26" as="geometry"/>
                </mxCell>
                <mxCell id="81" value="" style="line;strokeWidth=1;fillColor=none;align=left;verticalAlign=middle;spacingTop=-1;spacingLeft=3;spacingRight=3;rotatable=0;labelPosition=right;points=[];portConstraint=eastwest;strokeColor=inherit;" parent="79" vertex="1">
                    <mxGeometry y="52" width="220" height="8" as="geometry"/>
                </mxCell>
                <mxCell id="82" value="+__init__(sefl,filename)&#10;+save_vehicle(self,vehciles:list{vehicle}&#10;+read_vehicle(self0" style="text;strokeColor=none;fillColor=none;align=left;verticalAlign=top;spacingLeft=4;spacingRight=4;overflow=hidden;rotatable=0;points=[[0,0.5],[1,0.5]];portConstraint=eastwest;" parent="79" vertex="1">
                    <mxGeometry y="60" width="220" height="60" as="geometry"/>
                </mxCell>
                <mxCell id="89" value="" style="group" parent="1" vertex="1" connectable="0">
                    <mxGeometry x="-650" y="320" width="1019" as="geometry"/>
                </mxCell>
                <mxCell id="83" style="edgeStyle=orthogonalEdgeStyle;html=1;entryX=0.445;entryY=1.073;entryDx=0;entryDy=0;entryPerimeter=0;endArrow=block;endFill=0;endSize=12;exitX=0.5;exitY=0;exitDx=0;exitDy=0;rounded=0;" parent="89" source="33" target="15" edge="1">
                    <mxGeometry relative="1" as="geometry">
                        <Array as="points">
                            <mxPoint/>
                            <mxPoint x="525"/>
                        </Array>
                    </mxGeometry>
                </mxCell>
                <mxCell id="85" style="edgeStyle=orthogonalEdgeStyle;rounded=0;html=1;endArrow=none;endFill=0;endSize=12;" parent="89" source="37" edge="1">
                    <mxGeometry relative="1" as="geometry">
                        <mxPoint x="370" as="targetPoint"/>
                    </mxGeometry>
                </mxCell>
                <mxCell id="87" style="edgeStyle=orthogonalEdgeStyle;html=1;endArrow=none;endFill=0;endSize=12;exitX=0.29;exitY=0;exitDx=0;exitDy=0;rounded=0;exitPerimeter=0;" parent="89" source="41" edge="1">
                    <mxGeometry relative="1" as="geometry">
                        <mxPoint x="650" y="39.639999999999986" as="sourcePoint"/>
                        <mxPoint x="520" as="targetPoint"/>
                        <Array as="points">
                            <mxPoint x="650"/>
                        </Array>
                    </mxGeometry>
                </mxCell>
                <mxCell id="99" value="*" style="text;html=1;align=center;verticalAlign=middle;resizable=0;points=[];autosize=1;strokeColor=none;fillColor=none;" parent="1" vertex="1">
                    <mxGeometry x="590" y="165" width="30" height="30" as="geometry"/>
                </mxCell>
                <mxCell id="100" value="1" style="text;html=1;align=center;verticalAlign=middle;resizable=0;points=[];autosize=1;strokeColor=none;fillColor=none;" parent="1" vertex="1">
                    <mxGeometry x="865" y="145" width="30" height="30" as="geometry"/>
                </mxCell>
                <mxCell id="101" value="" style="endArrow=block;endSize=16;endFill=0;html=1;rounded=0;exitX=0.31;exitY=-0.008;exitDx=0;exitDy=0;exitPerimeter=0;" parent="1" source="16" target="5" edge="1">
                    <mxGeometry width="160" relative="1" as="geometry">
                        <mxPoint x="790" y="320" as="sourcePoint"/>
                        <mxPoint x="950" y="320" as="targetPoint"/>
                    </mxGeometry>
                </mxCell>
                <mxCell id="102" value="" style="endArrow=block;endSize=16;endFill=0;html=1;rounded=0;entryX=0.452;entryY=1.009;entryDx=0;entryDy=0;entryPerimeter=0;" parent="1" source="20" target="5" edge="1">
                    <mxGeometry width="160" relative="1" as="geometry">
                        <mxPoint x="789.5999999999999" y="339.52" as="sourcePoint"/>
                        <mxPoint x="956.5200831024931" y="250" as="targetPoint"/>
                    </mxGeometry>
                </mxCell>
                <mxCell id="103" value="" style="endArrow=block;endSize=16;endFill=0;html=1;rounded=0;exitX=0.543;exitY=-0.068;exitDx=0;exitDy=0;exitPerimeter=0;entryX=0.825;entryY=1.079;entryDx=0;entryDy=0;entryPerimeter=0;" parent="1" source="28" target="5" edge="1">
                    <mxGeometry width="160" relative="1" as="geometry">
                        <mxPoint x="799.5999999999999" y="349.52" as="sourcePoint"/>
                        <mxPoint x="966.5200831024931" y="260" as="targetPoint"/>
                    </mxGeometry>
                </mxCell>
                <mxCell id="104" value="" style="endArrow=block;endSize=16;endFill=0;html=1;rounded=0;exitX=0.25;exitY=0;exitDx=0;exitDy=0;entryX=0.682;entryY=1.131;entryDx=0;entryDy=0;entryPerimeter=0;" parent="1" source="24" target="5" edge="1">
                    <mxGeometry width="160" relative="1" as="geometry">
                        <mxPoint x="809.5999999999999" y="359.52" as="sourcePoint"/>
                        <mxPoint x="976.5200831024931" y="270" as="targetPoint"/>
                    </mxGeometry>
                </mxCell>
                <mxCell id="105" value="1" style="endArrow=open;html=1;endSize=12;startArrow=diamondThin;startSize=14;startFill=0;edgeStyle=orthogonalEdgeStyle;align=left;verticalAlign=bottom;rounded=0;entryX=0;entryY=0.5;entryDx=0;entryDy=0;exitX=1.002;exitY=0.301;exitDx=0;exitDy=0;exitPerimeter=0;" parent="1" source="69" target="51" edge="1">
                    <mxGeometry x="-0.9107" relative="1" as="geometry">
                        <mxPoint x="-880" y="250" as="sourcePoint"/>
                        <mxPoint x="-740" y="180" as="targetPoint"/>
                        <mxPoint as="offset"/>
                    </mxGeometry>
                </mxCell>
                <mxCell id="109" value="1" style="endArrow=open;html=1;endSize=12;startArrow=diamondThin;startSize=14;startFill=0;edgeStyle=orthogonalEdgeStyle;align=left;verticalAlign=bottom;rounded=0;entryX=0.5;entryY=0;entryDx=0;entryDy=0;exitX=0.542;exitY=-0.002;exitDx=0;exitDy=0;exitPerimeter=0;" parent="1" source="66" target="12" edge="1">
                    <mxGeometry x="-0.9745" y="-11" relative="1" as="geometry">
                        <mxPoint x="-1050" y="-10" as="sourcePoint"/>
                        <mxPoint x="-540" as="targetPoint"/>
                        <Array as="points">
                            <mxPoint x="-1051" y="-30"/>
                            <mxPoint x="-1050" y="-60"/>
                            <mxPoint x="-108" y="-60"/>
                        </Array>
                        <mxPoint as="offset"/>
                    </mxGeometry>
                </mxCell>
                <mxCell id="110" value="Use" style="endArrow=open;endSize=12;dashed=1;html=1;rounded=0;entryX=1.011;entryY=0.885;entryDx=0;entryDy=0;entryPerimeter=0;exitX=0.565;exitY=-0.003;exitDx=0;exitDy=0;exitPerimeter=0;" parent="1" source="79" target="13" edge="1">
                    <mxGeometry width="160" relative="1" as="geometry">
                        <mxPoint x="640" y="480" as="sourcePoint"/>
                        <mxPoint x="660" y="420" as="targetPoint"/>
                    </mxGeometry>
                </mxCell>
                <mxCell id="88" style="edgeStyle=orthogonalEdgeStyle;rounded=0;html=1;endArrow=none;endFill=0;endSize=12;exitX=0.25;exitY=0;exitDx=0;exitDy=0;" parent="1" edge="1">
                    <mxGeometry relative="1" as="geometry">
                        <mxPoint x="-100" y="320" as="targetPoint"/>
                        <mxPoint x="277.5" y="529.9999999999998" as="sourcePoint"/>
                        <Array as="points">
                            <mxPoint x="286" y="530"/>
                            <mxPoint x="286" y="320"/>
                        </Array>
                    </mxGeometry>
                </mxCell>
                <mxCell id="112" value="*" style="text;html=1;align=center;verticalAlign=middle;resizable=0;points=[];autosize=1;strokeColor=none;fillColor=none;" parent="1" vertex="1">
                    <mxGeometry x="-135" y="55" width="30" height="30" as="geometry"/>
                </mxCell>
                <mxCell id="114" value="" style="endArrow=open;html=1;endSize=12;startArrow=diamondThin;startSize=14;startFill=1;edgeStyle=orthogonalEdgeStyle;align=left;verticalAlign=bottom;rounded=0;entryX=-0.018;entryY=-0.069;entryDx=0;entryDy=0;entryPerimeter=0;exitX=0.999;exitY=0.21;exitDx=0;exitDy=0;exitPerimeter=0;" parent="1" source="11" target="5" edge="1">
                    <mxGeometry x="-1" y="3" relative="1" as="geometry">
                        <mxPoint x="590" y="190" as="sourcePoint"/>
                        <mxPoint x="750" y="190" as="targetPoint"/>
                    </mxGeometry>
                </mxCell>
                <mxCell id="115" value="*" style="text;html=1;align=center;verticalAlign=middle;resizable=0;points=[];autosize=1;strokeColor=none;fillColor=none;" vertex="1" parent="1">
                    <mxGeometry x="-705" y="155" width="30" height="30" as="geometry"/>
                </mxCell>
                <mxCell id="116" value="*" style="text;html=1;align=center;verticalAlign=middle;resizable=0;points=[];autosize=1;strokeColor=none;fillColor=none;" vertex="1" parent="1">
                    <mxGeometry x="-295" y="175" width="30" height="30" as="geometry"/>
                </mxCell>
                <mxCell id="119" value="MiniVan" style="swimlane;fontStyle=1;align=center;verticalAlign=top;childLayout=stackLayout;horizontal=1;startSize=26;horizontalStack=0;resizeParent=1;resizeParentMax=0;resizeLast=0;collapsible=1;marginBottom=0;" vertex="1" parent="1">
                    <mxGeometry x="230" y="530" width="230" height="130" as="geometry"/>
                </mxCell>
                <mxCell id="120" value="-sliding_doors:bool&#10;-towing_capacity:int&#10;" style="text;strokeColor=none;fillColor=none;align=left;verticalAlign=top;spacingLeft=4;spacingRight=4;overflow=hidden;rotatable=0;points=[[0,0.5],[1,0.5]];portConstraint=eastwest;" vertex="1" parent="119">
                    <mxGeometry y="26" width="230" height="44" as="geometry"/>
                </mxCell>
                <mxCell id="121" value="" style="line;strokeWidth=1;fillColor=none;align=left;verticalAlign=middle;spacingTop=-1;spacingLeft=3;spacingRight=3;rotatable=0;labelPosition=right;points=[];portConstraint=eastwest;strokeColor=inherit;" vertex="1" parent="119">
                    <mxGeometry y="70" width="230" height="8" as="geometry"/>
                </mxCell>
                <mxCell id="122" value="+__init__(self,model,color,model_year,&#10;sliding_doors, towing_caapcity)&#10;+ __str__(self)" style="text;strokeColor=none;fillColor=none;align=left;verticalAlign=top;spacingLeft=4;spacingRight=4;overflow=hidden;rotatable=0;points=[[0,0.5],[1,0.5]];portConstraint=eastwest;" vertex="1" parent="119">
                    <mxGeometry y="78" width="230" height="52" as="geometry"/>
                </mxCell>
            </root>
        </mxGraphModel>
    </diagram>
</mxfile>